<svg width="200" height="83" viewBox="0 0 200 83" fill="none" xmlns="http://www.w3.org/2000/svg">
<g clip-path="url(#clip0_69_1732)" filter="url(#filter0_d_69_1732)">
<path d="M19.48 51.49L26.82 73.89C26.8406 73.9531 26.8458 74.0202 26.8355 74.0857C26.8251 74.1512 26.7993 74.2134 26.7603 74.267C26.7213 74.3207 26.6701 74.3643 26.6109 74.3944C26.5518 74.4245 26.4864 74.4401 26.42 74.44H19.7C19.6087 74.4388 19.5203 74.4079 19.4481 74.352C19.3759 74.2961 19.3239 74.2181 19.3 74.13L18.59 71.5C18.5661 71.4119 18.5141 71.3339 18.4419 71.278C18.3698 71.2221 18.2813 71.1912 18.19 71.19H14.06C13.9959 71.1892 13.9329 71.1737 13.8757 71.1448C13.8185 71.1158 13.7687 71.0742 13.7301 71.0231C13.6915 70.9719 13.6651 70.9126 13.653 70.8497C13.6408 70.7867 13.6432 70.7219 13.66 70.66L15.13 65.23C15.1654 65.0952 15.2445 64.976 15.3548 64.891C15.4652 64.8059 15.6007 64.7599 15.74 64.76C15.8351 64.7609 15.9292 64.7402 16.0152 64.6995C16.1012 64.6588 16.1768 64.5992 16.2365 64.5251C16.2961 64.4511 16.3382 64.3644 16.3596 64.2717C16.381 64.1791 16.3812 64.0827 16.36 63.99L15.79 61.42C15.7656 61.3313 15.7128 61.253 15.6397 61.1972C15.5665 61.1415 15.477 61.1112 15.385 61.1112C15.293 61.1112 15.2035 61.1415 15.1304 61.1972C15.0572 61.253 15.0044 61.3313 14.98 61.42L11.54 74.12C11.5161 74.2081 11.4641 74.2861 11.3919 74.342C11.3198 74.398 11.2313 74.4288 11.14 74.43H4.42002C4.35366 74.4301 4.28823 74.4145 4.22908 74.3844C4.16993 74.3543 4.11875 74.3107 4.07972 74.257C4.04069 74.2034 4.01494 74.1412 4.00456 74.0757C3.99418 74.0102 3.99948 73.9431 4.02002 73.88L11.36 51.48C11.3875 51.3956 11.441 51.3221 11.5129 51.27C11.5847 51.2179 11.6713 51.1899 11.76 51.19H19.08C19.17 51.1905 19.2575 51.22 19.3295 51.274C19.4015 51.328 19.4543 51.4037 19.48 51.49Z" fill="#BD5519"/>
<path d="M33 51.2H39.5801C39.6558 51.1999 39.7302 51.2203 39.7954 51.259C39.8605 51.2977 39.914 51.3534 39.9501 51.42L44.1 59.3C44.136 59.3669 44.1893 59.4228 44.2545 59.4617C44.3196 59.5007 44.3941 59.5213 44.4701 59.5213C44.546 59.5213 44.6205 59.5007 44.6856 59.4617C44.7508 59.4228 44.8041 59.3669 44.84 59.3L49 51.42C49.0361 51.3534 49.0896 51.2977 49.1547 51.259C49.2199 51.2203 49.2943 51.1999 49.37 51.2H56C56.1048 51.1995 56.206 51.2383 56.2837 51.3086C56.3615 51.3789 56.4101 51.4757 56.42 51.58L58.2401 74C58.2442 74.0576 58.2364 74.1155 58.2171 74.17C58.1979 74.2244 58.1676 74.2744 58.1282 74.3166C58.0887 74.3588 58.041 74.3925 57.988 74.4154C57.935 74.4384 57.8778 74.4502 57.82 74.45H51.0601C50.9537 74.4503 50.8511 74.4102 50.7732 74.3378C50.6952 74.2654 50.6476 74.1661 50.64 74.06L50 63.51C49.994 63.4169 49.9572 63.3284 49.8953 63.2585C49.8334 63.1887 49.75 63.1414 49.6583 63.1242C49.5666 63.107 49.4718 63.1209 49.3888 63.1636C49.3058 63.2063 49.2394 63.2754 49.2001 63.36L45.16 72C45.1089 72.1079 45.0282 72.1989 44.9273 72.2627C44.8263 72.3264 44.7094 72.3602 44.59 72.36H44.44C44.3207 72.3602 44.2038 72.3264 44.1028 72.2627C44.0019 72.1989 43.9212 72.1079 43.87 72L39.7901 63.34C39.7507 63.2554 39.6843 63.1863 39.6013 63.1436C39.5183 63.1009 39.4235 63.087 39.3318 63.1042C39.2401 63.1214 39.1567 63.1687 39.0948 63.2385C39.0329 63.3084 38.9961 63.3969 38.9901 63.49L38.39 74C38.3825 74.1061 38.3349 74.2054 38.2569 74.2778C38.179 74.3502 38.0764 74.3903 37.9701 74.39H31.21C31.1054 74.3878 31.0054 74.3466 30.9295 74.2744C30.8537 74.2023 30.8075 74.1044 30.8 74L32.63 51.6C32.6341 51.5002 32.6736 51.4052 32.7414 51.3319C32.8092 51.2586 32.9009 51.2118 33 51.2Z" fill="#BD5519"/>
<path d="M64.0001 51.2H70.3801C70.4915 51.2 70.5983 51.2443 70.6771 51.323C70.7558 51.4018 70.8001 51.5086 70.8001 51.62V59.12C70.8014 59.2113 70.8325 59.2997 70.8886 59.3717C70.9447 59.4438 71.0227 59.4956 71.1108 59.5193C71.199 59.5431 71.2925 59.5374 71.3772 59.5033C71.4618 59.4691 71.5331 59.4083 71.5801 59.33L76.3101 51.4C76.3479 51.3386 76.4008 51.2879 76.4639 51.2529C76.5269 51.2178 76.5979 51.1996 76.6701 51.2H82.4401C82.5515 51.2 82.6583 51.2443 82.7371 51.323C82.8158 51.4018 82.8601 51.5086 82.8601 51.62V74C82.8601 74.0552 82.8492 74.1098 82.8281 74.1607C82.807 74.2117 82.7761 74.258 82.7371 74.297C82.6981 74.336 82.6518 74.3669 82.6008 74.388C82.5498 74.4092 82.4952 74.42 82.4401 74.42H76.1001C76.0449 74.42 75.9903 74.4092 75.9393 74.388C75.8884 74.3669 75.8421 74.336 75.8031 74.297C75.7641 74.258 75.7332 74.2117 75.712 74.1607C75.6909 74.1098 75.6801 74.0552 75.6801 74V66.38C75.6787 66.2887 75.6476 66.2004 75.5916 66.1283C75.5355 66.0563 75.4575 66.0044 75.3693 65.9807C75.2811 65.957 75.1877 65.9626 75.103 65.9968C75.0183 66.0309 74.9471 66.0917 74.9001 66.17L70.1701 74.23C70.1335 74.2933 70.0811 74.346 70.018 74.3828C69.9548 74.4197 69.8832 74.4394 69.8101 74.44H64.0001C63.8887 74.44 63.7819 74.3958 63.7031 74.317C63.6243 74.2382 63.5801 74.1314 63.5801 74.02V51.62C63.5801 51.5086 63.6243 51.4018 63.7031 51.323C63.7819 51.2443 63.8887 51.2 64.0001 51.2Z" fill="#BD5519"/>
<path d="M108.38 74.19H103.27C103.039 74.19 102.818 74.0984 102.655 73.9352C102.492 73.7721 102.4 73.5508 102.4 73.32V58.43C102.4 58.1993 102.308 57.978 102.145 57.8148C101.982 57.6517 101.761 57.56 101.53 57.56H96.38C96.1493 57.56 95.928 57.6517 95.7648 57.8148C95.6017 57.978 95.51 58.1993 95.51 58.43V73.32C95.51 73.5508 95.4184 73.7721 95.2552 73.9352C95.0921 74.0984 94.8708 74.19 94.64 74.19H89.53C89.4158 74.19 89.3027 74.1675 89.1971 74.1238C89.0915 74.0801 88.9956 74.016 88.9148 73.9352C88.8341 73.8544 88.77 73.7585 88.7263 73.653C88.6825 73.5474 88.66 73.4343 88.66 73.32V52.9C88.66 52.7858 88.6825 52.6726 88.7263 52.5671C88.77 52.4615 88.8341 52.3656 88.9148 52.2848C88.9956 52.2041 89.0915 52.14 89.1971 52.0963C89.3027 52.0525 89.4158 52.03 89.53 52.03H108.37C108.601 52.03 108.822 52.1217 108.985 52.2848C109.148 52.448 109.24 52.6693 109.24 52.9V73.32C109.24 73.549 109.15 73.7688 108.989 73.9317C108.828 74.0946 108.609 74.1874 108.38 74.19Z" fill="#3E3E3D"/>
<path d="M134.08 59.56C134.139 60.545 133.979 61.5309 133.613 62.4471C133.246 63.3633 132.682 64.1872 131.96 64.86C130.221 66.2097 128.047 66.875 125.85 66.73H123.85C123.619 66.73 123.398 66.8217 123.235 66.9848C123.072 67.148 122.98 67.3693 122.98 67.6V73.33C122.98 73.4443 122.958 73.5574 122.914 73.6629C122.87 73.7685 122.806 73.8644 122.725 73.9452C122.644 74.026 122.549 74.0901 122.443 74.1338C122.337 74.1775 122.224 74.2 122.11 74.2H117C116.886 74.2 116.773 74.1775 116.667 74.1338C116.562 74.0901 116.466 74.026 116.385 73.9452C116.304 73.8644 116.24 73.7685 116.196 73.6629C116.153 73.5574 116.13 73.4443 116.13 73.33V52.9C116.126 52.7833 116.146 52.6669 116.187 52.5578C116.229 52.4488 116.293 52.3493 116.374 52.2653C116.455 52.1813 116.552 52.1146 116.66 52.069C116.768 52.0234 116.883 51.9999 117 52H125.33C128.27 52 130.5 52.7067 132.02 54.12C132.733 54.8261 133.286 55.6773 133.642 56.6159C133.997 57.5545 134.147 58.5586 134.08 59.56ZM127.08 59.39C127.08 57.8033 126.12 57.01 124.2 57.01H124.14C123.819 57.01 123.511 57.1375 123.284 57.3644C123.058 57.5913 122.93 57.8991 122.93 58.22V60.57C122.93 60.8909 123.058 61.1987 123.284 61.4256C123.511 61.6525 123.819 61.78 124.14 61.78C126.093 61.7733 127.07 60.9733 127.07 59.38L127.08 59.39Z" fill="#3E3E3D"/>
<path d="M163.46 63.11C163.505 64.6328 163.238 66.1488 162.678 67.5655C162.117 68.9821 161.274 70.2698 160.2 71.35C157.683 73.5948 154.428 74.8354 151.055 74.8354C147.682 74.8354 144.427 73.5948 141.91 71.35C140.836 70.2698 139.993 68.9821 139.432 67.5655C138.872 66.1488 138.605 64.6328 138.65 63.11C138.605 61.5871 138.872 60.0712 139.432 58.6545C139.993 57.2379 140.836 55.9502 141.91 54.87C144.427 52.6251 147.682 51.3846 151.055 51.3846C154.428 51.3846 157.683 52.6251 160.2 54.87C161.274 55.9502 162.117 57.2379 162.678 58.6545C163.238 60.0712 163.505 61.5871 163.46 63.11ZM156.34 63.11C156.366 62.3722 156.241 61.6368 155.973 60.9489C155.705 60.2611 155.299 59.6353 154.78 59.11C153.785 58.1346 152.448 57.5883 151.055 57.5883C149.662 57.5883 148.325 58.1346 147.33 59.11C146.324 60.1892 145.765 61.6097 145.765 63.085C145.765 64.5603 146.324 65.9808 147.33 67.06C148.325 68.0354 149.662 68.5817 151.055 68.5817C152.448 68.5817 153.785 68.0354 154.78 67.06C155.293 66.5405 155.695 65.9229 155.963 65.2442C156.231 64.5654 156.359 63.8395 156.34 63.11Z" fill="#3E3E3D"/>
<path d="M195.78 62.14C195.78 65.4733 194.62 67.8967 192.3 69.41C190.312 70.5615 188.034 71.1137 185.74 71H185.37V73.27C185.37 73.3842 185.347 73.4974 185.304 73.6029C185.26 73.7085 185.196 73.8044 185.115 73.8852C185.034 73.966 184.938 74.03 184.833 74.0738C184.727 74.1175 184.614 74.14 184.5 74.14H179.42C179.306 74.14 179.193 74.1175 179.087 74.0738C178.982 74.03 178.886 73.966 178.805 73.8852C178.724 73.8044 178.66 73.7085 178.616 73.6029C178.573 73.4974 178.55 73.3842 178.55 73.27V71H178.18C175.881 71.098 173.603 70.5284 171.62 69.36C169.287 67.8667 168.12 65.4433 168.12 62.09C168.12 58.7367 169.287 56.32 171.62 54.84C173.606 53.6828 175.883 53.1205 178.18 53.22H178.55V51.61C178.55 51.4957 178.573 51.3826 178.616 51.2771C178.66 51.1715 178.724 51.0756 178.805 50.9948C178.886 50.914 178.982 50.8499 179.087 50.8062C179.193 50.7625 179.306 50.74 179.42 50.74H184.5C184.731 50.74 184.952 50.8316 185.115 50.9948C185.278 51.158 185.37 51.3793 185.37 51.61V53.27H185.74C188.037 53.1705 190.314 53.7328 192.3 54.89C194.62 56.3833 195.78 58.8 195.78 62.14ZM178.78 65.81V58.47H178.28C177.394 58.4398 176.528 58.731 175.84 59.29C175.103 60.0557 174.691 61.0772 174.691 62.14C174.691 63.2028 175.103 64.2242 175.84 64.99C176.524 65.5558 177.393 65.8511 178.28 65.82L178.78 65.81ZM189.27 62.14C189.309 61.6072 189.225 61.0726 189.026 60.577C188.826 60.0814 188.517 59.6378 188.12 59.28C187.432 58.721 186.566 58.4298 185.68 58.46H185.18V65.81H185.68C186.558 65.8418 187.418 65.554 188.1 65C188.494 64.6404 188.803 64.1965 189.002 63.7013C189.201 63.2062 189.286 62.6725 189.25 62.14H189.27Z" fill="#3E3E3D"/>
<path d="M15.0001 39.73V41.15H14.0001V40.54H11.5601V37.44H12.5601V39.73H13.5601V37.44H14.5601V39.73H15.0001Z" fill="#3E3E3D"/>
<path d="M19.2701 39.75V40.54H16.6901V37.44H19.2101V38.23H17.7201V38.59H19.0001V39.34H17.7201V39.75H19.2701Z" fill="#3E3E3D"/>
<path d="M24.07 37.44V40.54H23V39.4H22V40.54H21V37.44H22V38.54H23V37.44H24.07Z" fill="#3E3E3D"/>
<path d="M28.59 38.25H27.68V40.54H26.68V38.25H25.77V37.44H28.61L28.59 38.25Z" fill="#3E3E3D"/>
<path d="M32.5101 37.58C32.7119 37.6662 32.8839 37.8098 33.0048 37.9929C33.1257 38.176 33.1902 38.3906 33.1902 38.61C33.1902 38.8295 33.1257 39.044 33.0048 39.2272C32.8839 39.4103 32.7119 39.5538 32.5101 39.64C32.2727 39.7389 32.0171 39.7866 31.7601 39.78H31.3101V40.54H30.3101V37.44H31.8001C32.0437 37.439 32.2851 37.4866 32.5101 37.58ZM32.0101 38.88C32.0797 38.8074 32.1186 38.7107 32.1186 38.61C32.1186 38.5094 32.0797 38.4126 32.0101 38.34C31.9179 38.272 31.8041 38.24 31.6901 38.25H31.3101V39H31.6901C31.8046 38.9991 31.9148 38.9564 32.0001 38.88H32.0101Z" fill="#3E3E3D"/>
<path d="M38.19 40.4C37.9296 40.2666 37.7111 40.0639 37.5585 39.8142C37.4059 39.5645 37.3252 39.2776 37.3252 38.985C37.3252 38.6924 37.4059 38.4055 37.5585 38.1558C37.7111 37.9062 37.9296 37.7035 38.19 37.57C38.4692 37.4294 38.7774 37.3561 39.09 37.3561C39.4026 37.3561 39.7109 37.4294 39.99 37.57C40.2504 37.7035 40.4689 37.9062 40.6215 38.1558C40.7741 38.4055 40.8549 38.6924 40.8549 38.985C40.8549 39.2776 40.7741 39.5645 40.6215 39.8142C40.4689 40.0639 40.2504 40.2666 39.99 40.4C39.7109 40.5407 39.4026 40.614 39.09 40.614C38.7774 40.614 38.4692 40.5407 38.19 40.4ZM39.44 39.67C39.5466 39.6047 39.6331 39.5113 39.69 39.4C39.7513 39.272 39.7831 39.1319 39.7831 38.99C39.7831 38.8481 39.7513 38.708 39.69 38.58C39.6331 38.4688 39.5466 38.3753 39.44 38.31C39.3336 38.2486 39.2129 38.2162 39.09 38.2162C38.9671 38.2162 38.8464 38.2486 38.74 38.31C38.6338 38.3757 38.5474 38.4691 38.49 38.58C38.4288 38.708 38.397 38.8481 38.397 38.99C38.397 39.1319 38.4288 39.272 38.49 39.4C38.5474 39.511 38.6338 39.6043 38.74 39.67C38.8464 39.7315 38.9671 39.7638 39.09 39.7638C39.2129 39.7638 39.3336 39.7315 39.44 39.67Z" fill="#3E3E3D"/>
<path d="M42.55 37.44H45.2401V38.23H43.57V38.59H44.3101C44.6188 38.5694 44.9255 38.654 45.18 38.83C45.2817 38.9148 45.3618 39.0224 45.4139 39.1441C45.4661 39.2657 45.4887 39.3979 45.48 39.53C45.4852 39.6724 45.4561 39.8139 45.3952 39.9426C45.3343 40.0714 45.2434 40.1837 45.1301 40.27C44.8382 40.4735 44.4846 40.569 44.1301 40.54H42.55V37.44ZM44.1101 39.81C44.1956 39.8136 44.2799 39.789 44.35 39.74C44.3791 39.7178 44.4024 39.6889 44.418 39.6559C44.4337 39.6228 44.4412 39.5865 44.44 39.55C44.44 39.39 44.3301 39.31 44.1101 39.31H43.57V39.81H44.1101Z" fill="#3E3E3D"/>
<path d="M50.14 37.44L48.9 39.78C48.7748 40.0314 48.5893 40.2478 48.36 40.41C48.1517 40.5548 47.9037 40.6316 47.65 40.63C47.4442 40.629 47.2404 40.5882 47.05 40.51L47.29 39.76C47.3942 39.7902 47.5017 39.807 47.61 39.81C47.6759 39.825 47.7442 39.825 47.81 39.81C47.8722 39.7788 47.9267 39.7344 47.97 39.68L46.78 37.49H47.88L48.5 38.8L49.14 37.49L50.14 37.44Z" fill="#3E3E3D"/>
<path d="M54.59 37.44V40.54H53.59V39.54C53.4086 39.5965 53.22 39.6268 53.03 39.63C52.669 39.6473 52.3139 39.5337 52.03 39.31C51.9061 39.1883 51.8098 39.0414 51.7476 38.8792C51.6855 38.717 51.659 38.5433 51.67 38.37V37.44H52.67V38.26C52.6558 38.4101 52.6987 38.5601 52.79 38.68C52.8406 38.7273 52.9006 38.7633 52.9661 38.7857C53.0316 38.8081 53.1011 38.8164 53.17 38.81C53.3166 38.815 53.4627 38.7913 53.6 38.74V37.44H54.59Z" fill="#3E3E3D"/>
<path d="M59 39.75V40.54H56.47V37.44H59V38.23H57.5V38.59H58.81V39.34H57.5V39.75H59Z" fill="#3E3E3D"/>
<path d="M63.86 37.44V40.54H62.86V39.4H61.86V40.54H60.86V37.44H61.86V38.54H62.86V37.44H63.86Z" fill="#3E3E3D"/>
<path d="M65.73 37.44H66.73V39.05L67.8 37.44H68.8V40.54H67.8V38.93L66.74 40.54H65.74L65.73 37.44Z" fill="#3E3E3D"/>
<path d="M73.4101 37.44V40.54H72.4101V39.8H72.1L71.63 40.54H70.53L71.14 39.65C70.9509 39.5646 70.7909 39.4255 70.68 39.25C70.5699 39.066 70.5144 38.8544 70.52 38.64C70.5157 38.4136 70.5783 38.191 70.7 38C70.8217 37.8139 70.9957 37.6678 71.2 37.58C71.4399 37.4767 71.6989 37.4255 71.96 37.43L73.4101 37.44ZM71.58 38.62C71.5741 38.6749 71.5813 38.7305 71.601 38.7821C71.6206 38.8337 71.6522 38.88 71.6932 38.917C71.7342 38.9541 71.7833 38.981 71.8367 38.9954C71.89 39.0098 71.946 39.0114 72 39H72.4101V38.23H72C71.71 38.25 71.57 38.37 71.57 38.62H71.58Z" fill="#3E3E3D"/>
<path d="M130.94 37.55H131.94V39.11L132.94 37.55H133.94V40.55H132.94V39L131.94 40.56H130.94V37.55Z" fill="#3E3E3D"/>
<path d="M139 40.43C138.748 40.3006 138.537 40.1043 138.389 39.8626C138.241 39.6209 138.163 39.3432 138.163 39.06C138.163 38.7768 138.241 38.4991 138.389 38.2574C138.537 38.0156 138.748 37.8193 139 37.69C139.271 37.5589 139.569 37.4908 139.87 37.4908C140.171 37.4908 140.469 37.5589 140.74 37.69C140.992 37.8193 141.203 38.0156 141.351 38.2574C141.499 38.4991 141.577 38.7768 141.577 39.06C141.577 39.3432 141.499 39.6209 141.351 39.8626C141.203 40.1043 140.992 40.3006 140.74 40.43C140.469 40.561 140.171 40.6291 139.87 40.6291C139.569 40.6291 139.271 40.561 139 40.43ZM140.21 39.72C140.312 39.6568 140.395 39.5669 140.45 39.46C140.51 39.3352 140.541 39.1985 140.541 39.06C140.541 38.9215 140.51 38.7847 140.45 38.66C140.395 38.5531 140.312 38.4632 140.21 38.4C140.107 38.3403 139.989 38.3089 139.87 38.3089C139.751 38.3089 139.633 38.3403 139.53 38.4C139.428 38.4636 139.345 38.5534 139.29 38.66C139.23 38.7847 139.198 38.9215 139.198 39.06C139.198 39.1985 139.23 39.3352 139.29 39.46C139.345 39.5666 139.428 39.6564 139.53 39.72C139.633 39.7797 139.751 39.8111 139.87 39.8111C139.989 39.8111 140.107 39.7797 140.21 39.72Z" fill="#3E3E3D"/>
<path d="M146.55 39.77V41.15H145.62V40.56H143.21V37.56H144.21V39.78H145.21V37.55H146.21V39.77H146.55Z" fill="#3E3E3D"/>
<path d="M150.68 39.79V40.55H148.18V37.55H150.63V38.31H149.18V38.66H150.45V39.39H149.18V39.79H150.68Z" fill="#3E3E3D"/>
<path d="M155.35 37.55V40.55H154.35V39.45H153.41V40.56H152.41V37.56H153.41V38.63H154.35V37.55H155.35Z" fill="#3E3E3D"/>
<path d="M159.27 39L160.16 40.55H159L158.42 39.46H158.14V40.55H157.14V37.55H158.14V38.67H158.45L159.09 37.55H160.15L159.27 39Z" fill="#3E3E3D"/>
<path d="M161.66 37.55H162.66V39.11L163.66 37.55H164.66V40.55H163.66V39L162.66 40.56H161.66V37.55Z" fill="#3E3E3D"/>
<path d="M171.22 37.69C171.419 37.7711 171.589 37.9095 171.708 38.0876C171.828 38.2657 171.892 38.4754 171.892 38.69C171.892 38.9046 171.828 39.1143 171.708 39.2925C171.589 39.4706 171.419 39.609 171.22 39.69C170.989 39.7878 170.741 39.8356 170.49 39.83H170.06V40.57H169.06V37.57H170.51C170.752 37.561 170.994 37.6018 171.22 37.69ZM170.74 38.95C170.806 38.8796 170.843 38.7866 170.843 38.69C170.843 38.5934 170.806 38.5005 170.74 38.43C170.651 38.3627 170.541 38.3307 170.43 38.34H170.06V39H170.43C170.536 39.0211 170.646 39.0034 170.74 38.95Z" fill="#3E3E3D"/>
<path d="M173.46 37.55H174.46V39.11L175.46 37.55H176.46V40.55H175.46V39L174.46 40.56H173.46V37.55Z" fill="#3E3E3D"/>
<path d="M178.93 40.43C178.682 40.3032 178.474 40.1091 178.33 39.87C178.188 39.6219 178.113 39.3409 178.113 39.055C178.113 38.7691 178.188 38.4881 178.33 38.24C178.474 38.0008 178.682 37.8068 178.93 37.68C179.196 37.5441 179.491 37.4755 179.79 37.48C180.058 37.4739 180.324 37.525 180.57 37.63C180.795 37.7292 180.991 37.8841 181.14 38.08L180.5 38.65C180.426 38.5435 180.327 38.4563 180.212 38.3955C180.097 38.3346 179.97 38.3019 179.84 38.3C179.746 38.2955 179.652 38.311 179.564 38.3455C179.476 38.3799 179.396 38.4326 179.33 38.5C179.203 38.6553 179.134 38.8496 179.134 39.05C179.134 39.2504 179.203 39.4447 179.33 39.6C179.396 39.6674 179.476 39.72 179.564 39.7545C179.652 39.789 179.746 39.8045 179.84 39.8C179.97 39.7981 180.097 39.7654 180.212 39.7045C180.327 39.6437 180.426 39.5564 180.5 39.45L181.14 40.02C180.992 40.2162 180.795 40.3711 180.57 40.47C180.324 40.575 180.058 40.6261 179.79 40.62C179.492 40.6276 179.197 40.5624 178.93 40.43Z" fill="#3E3E3D"/>
<path d="M184.83 39L185.72 40.55H184.58L184 39.47H183.72V40.56H182.72V37.56H183.72V38.68H184L184.64 37.56H185.7L184.83 39Z" fill="#3E3E3D"/>
<path d="M187.86 40.43C187.608 40.3006 187.397 40.1043 187.249 39.8626C187.101 39.6209 187.023 39.3432 187.023 39.06C187.023 38.7768 187.101 38.4991 187.249 38.2574C187.397 38.0156 187.608 37.8193 187.86 37.69C188.131 37.5589 188.429 37.4908 188.73 37.4908C189.031 37.4908 189.329 37.5589 189.6 37.69C189.852 37.8193 190.063 38.0156 190.211 38.2574C190.359 38.4991 190.437 38.7768 190.437 39.06C190.437 39.3432 190.359 39.6209 190.211 39.8626C190.063 40.1043 189.852 40.3006 189.6 40.43C189.329 40.561 189.031 40.6291 188.73 40.6291C188.429 40.6291 188.131 40.561 187.86 40.43ZM189.07 39.72C189.172 39.6568 189.255 39.5669 189.31 39.46C189.37 39.3352 189.402 39.1985 189.402 39.06C189.402 38.9215 189.37 38.7847 189.31 38.66C189.255 38.5531 189.172 38.4632 189.07 38.4C188.967 38.3403 188.849 38.3089 188.73 38.3089C188.611 38.3089 188.493 38.3403 188.39 38.4C188.288 38.4636 188.205 38.5534 188.15 38.66C188.09 38.7847 188.059 38.9215 188.059 39.06C188.059 39.1985 188.09 39.3352 188.15 39.46C188.205 39.5666 188.288 39.6564 188.39 39.72C188.493 39.7797 188.611 39.8111 188.73 39.8111C188.849 39.8111 188.967 39.7797 189.07 39.72Z" fill="#3E3E3D"/>
<path d="M194.78 39.25C194.871 39.3783 194.917 39.533 194.91 39.69C194.914 39.8149 194.887 39.9389 194.831 40.0506C194.775 40.1624 194.692 40.2584 194.59 40.33C194.322 40.4994 194.007 40.5798 193.69 40.56H192.08V37.56H193.61C193.914 37.5424 194.217 37.6154 194.48 37.77C194.578 37.8312 194.658 37.9169 194.712 38.0187C194.767 38.1204 194.794 38.2347 194.79 38.35C194.794 38.4836 194.759 38.6155 194.69 38.73C194.619 38.8438 194.519 38.9369 194.4 39C194.548 39.0448 194.68 39.1317 194.78 39.25ZM193.08 38.71H193.51C193.68 38.71 193.76 38.64 193.76 38.49C193.76 38.34 193.68 38.26 193.51 38.26H193.08V38.71ZM193.89 39.61C193.89 39.46 193.81 39.38 193.64 39.38H193.08V39.85H193.64C193.81 39.85 193.89 39.77 193.89 39.61Z" fill="#3E3E3D"/>
<path d="M103.89 0H85.47L103.89 22.7L113.11 11.35L103.89 0Z" fill="#6F6F6E"/>
<path d="M85.47 0L67.04 22.7H85.47L94.68 11.35L85.47 0Z" fill="#3E3E3D"/>
<path opacity="0.2" d="M103.89 0H85.47L89.05 1.83H103.28L111 11.35H113.11L103.89 0Z" fill="white"/>
<g style="mix-blend-mode:multiply">
<path d="M85.47 0L94.68 11.35L92.56 13.96L85.47 0Z" fill="#B1B1B0"/>
</g>
<path d="M96.94 19.34L94.54 16.39L92.17 19.31L94.56 22.26L96.94 19.34Z" fill="#BD5519"/>
<path d="M97.94 22.61L94.56 26.77L91.18 22.6L85.34 29.8L94.56 41.15H112.98L97.94 22.61Z" fill="#BD5519"/>
<path d="M112.98 18.45L94.56 41.15H112.98L131.41 18.45H112.98Z" fill="#DC911B"/>
<path opacity="0.2" d="M112.98 18.45L113.6 20.28H127.82L112.37 39.32L112.98 41.15L131.41 18.45H112.98Z" fill="white"/>
<g style="mix-blend-mode:multiply">
<path d="M94.56 41.15L103.77 29.8L101.65 27.18L94.56 41.15Z" fill="#B1B1B0"/>
</g>
</g>
<defs>
<filter id="filter0_d_69_1732" x="0" y="0" width="199.78" height="82.84" filterUnits="userSpaceOnUse" color-interpolation-filters="sRGB">
<feFlood flood-opacity="0" result="BackgroundImageFix"/>
<feColorMatrix in="SourceAlpha" type="matrix" values="0 0 0 0 0 0 0 0 0 0 0 0 0 0 0 0 0 0 127 0" result="hardAlpha"/>
<feOffset dy="4"/>
<feGaussianBlur stdDeviation="2"/>
<feComposite in2="hardAlpha" operator="out"/>
<feColorMatrix type="matrix" values="0 0 0 0 0 0 0 0 0 0 0 0 0 0 0 0 0 0 0.25 0"/>
<feBlend mode="normal" in2="BackgroundImageFix" result="effect1_dropShadow_69_1732"/>
<feBlend mode="normal" in="SourceGraphic" in2="effect1_dropShadow_69_1732" result="shape"/>
</filter>
<clipPath id="clip0_69_1732">
<rect width="191.78" height="74.84" fill="white" transform="translate(4)"/>
</clipPath>
</defs>
</svg>
