<svg width="65" height="42" viewBox="0 0 65 42" fill="none" xmlns="http://www.w3.org/2000/svg">
<path d="M36.89 0H18.47L36.89 22.7L46.11 11.35L36.89 0Z" fill="#6F6F6E"/>
<path d="M18.47 0L0.0400391 22.7H18.47L27.68 11.35L18.47 0Z" fill="#3E3E3D"/>
<path opacity="0.2" d="M36.89 0H18.47L22.05 1.83H36.28L44 11.35H46.11L36.89 0Z" fill="white"/>
<g style="mix-blend-mode:multiply">
<path d="M18.47 0L27.68 11.35L25.56 13.96L18.47 0Z" fill="#B1B1B0"/>
</g>
<path d="M29.94 19.34L27.54 16.39L25.17 19.31L27.56 22.26L29.94 19.34Z" fill="#BD5519"/>
<path d="M30.94 22.61L27.56 26.77L24.18 22.6L18.34 29.8L27.56 41.15H45.98L30.94 22.61Z" fill="#BD5519"/>
<path d="M45.98 18.45L27.56 41.15H45.98L64.41 18.45H45.98Z" fill="#DC911B"/>
<path opacity="0.2" d="M45.98 18.45L46.6 20.28H60.82L45.37 39.32L45.98 41.15L64.41 18.45H45.98Z" fill="white"/>
<g style="mix-blend-mode:multiply">
<path d="M27.56 41.15L36.77 29.8L34.65 27.18L27.56 41.15Z" fill="#B1B1B0"/>
</g>
</svg>
